<?xml version="1.0" standalone="no"?>
<!DOCTYPE svg PUBLIC "-//W3C//DTD SVG 20010904//EN"
 "http://www.w3.org/TR/2001/REC-SVG-20010904/DTD/svg10.dtd">
<svg version="1.0" xmlns="http://www.w3.org/2000/svg"
 width="1024.000000pt" height="1024.000000pt" viewBox="0 0 1024.000000 1024.000000"
 preserveAspectRatio="xMidYMid meet">
<metadata>
Created by potrace 1.14, written by Peter Selinger 2001-2017
</metadata>
<g transform="translate(0.000000,1024.000000) scale(0.100000,-0.100000)"
fill="#000000" stroke="none">
<path d="M0 5120 l0 -5120 5120 0 5120 0 0 5120 0 5120 -5120 0 -5120 0 0
-5120z m4909 4093 c-11 -12 -7 -20 20 -44 31 -26 32 -29 12 -29 -34 0 -61 18
-61 41 0 28 19 61 31 53 6 -4 5 -11 -2 -21z m651 -23 c0 -13 -41 -22 -76 -18
l-29 4 25 11 c31 15 80 16 80 3z m-140 -95 c0 -4 -32 -14 -102 -31 -40 -9 -36
13 5 25 34 10 97 14 97 6z m-470 -70 c0 -8 -5 -15 -11 -15 -5 0 -8 4 -5 9 4 5
0 12 -6 14 -8 3 -6 6 5 6 9 1 17 -6 17 -14z m390 -37 c-23 -31 -27 -44 -18
-50 9 -5 3 -8 -14 -8 -43 0 -36 33 14 69 23 17 43 31 45 31 2 0 -10 -19 -27
-42z m-90 -18 c-27 -21 -55 -27 -45 -9 7 11 42 27 60 28 6 0 -1 -8 -15 -19z
m709 -83 c24 -12 51 -34 60 -47 14 -22 9 -20 -37 13 -28 20 -56 37 -61 37 -6
0 -13 5 -16 10 -9 15 6 12 54 -13z m2517 -229 c444 -432 699 -784 985 -1361
356 -719 532 -1432 532 -2167 1 -426 -51 -796 -173 -1223 -247 -871 -679
-1599 -1339 -2257 -592 -591 -1246 -989 -2002 -1219 -366 -111 -834 -188
-1169 -192 l-135 -1 -3 268 c-2 148 0 463 3 700 l7 431 132 7 c315 17 649 87
961 204 624 232 1041 523 1510 1052 163 183 205 236 180 226 -47 -18 -166 -46
-242 -57 -131 -18 -473 -7 -603 20 -383 80 -751 297 -1006 592 -91 106 -154
187 -154 198 0 5 37 37 81 72 235 185 433 509 524 859 37 144 46 417 20 602
-32 225 -107 450 -207 615 -125 207 -305 397 -501 527 -62 42 -119 76 -125 76
-22 0 -12 20 57 112 73 99 173 252 184 281 6 15 22 9 134 -49 390 -204 618
-415 768 -714 62 -123 90 -200 122 -330 23 -89 27 -128 27 -255 1 -210 -21
-279 -128 -392 -27 -29 -43 -53 -36 -53 27 0 113 65 180 137 109 117 185 289
221 506 7 42 16 77 20 77 11 0 67 -124 90 -201 17 -55 20 -87 16 -142 -2 -40
-7 -81 -11 -92 -3 -11 5 4 19 34 15 30 36 93 47 140 18 75 19 104 13 226 -4
77 -8 212 -9 300 -3 220 -1 214 -210 618 -59 114 -128 235 -153 268 -42 58
-47 61 -78 56 -42 -7 -74 16 -111 79 -14 24 -30 44 -35 44 -5 0 -9 -17 -9 -37
l0 -38 -68 70 c-37 39 -88 85 -114 103 -76 52 -58 66 22 17 55 -33 158 -76
240 -101 41 -12 121 -38 177 -58 56 -19 144 -45 195 -57 155 -36 193 -66 266
-206 20 -40 40 -73 45 -73 15 0 6 52 -23 125 -16 42 -30 81 -30 87 0 17 201 2
293 -21 84 -22 272 -97 359 -143 51 -27 64 -41 108 -113 58 -98 86 -158 146
-319 90 -239 130 -376 168 -566 51 -254 60 -356 60 -665 0 -303 -7 -381 -55
-625 -53 -263 -192 -623 -277 -712 -50 -54 -14 -37 114 53 225 160 339 266
427 397 50 75 119 212 147 290 13 34 27 65 31 68 28 17 -9 -182 -51 -282 -11
-26 -18 -49 -15 -52 18 -18 87 143 127 298 29 108 31 129 35 355 6 273 -8 423
-59 658 -69 323 -210 659 -342 821 -20 24 -36 46 -36 50 0 34 172 -167 274
-319 71 -107 142 -259 172 -370 22 -83 25 -114 22 -190 -3 -49 -8 -99 -12
-110 -3 -11 3 -2 13 21 11 22 25 81 32 130 19 153 -22 367 -102 527 -45 90
-133 221 -192 289 -132 149 -356 324 -571 444 -138 77 -163 95 -185 132 -45
74 -182 263 -265 367 -156 194 -475 503 -636 617 -33 23 -60 44 -60 47 1 4 36
27 78 52 82 49 408 251 713 442 102 64 194 126 204 137 10 11 24 20 30 20 7 0
97 -82 201 -182z m-1563 -879 c26 -17 47 -34 47 -39 0 -6 -137 28 -150 38 -7
5 31 32 45 32 6 0 33 -14 58 -31z m-127 -53 c7 -8 65 -36 128 -62 113 -47 115
-49 137 -96 25 -54 33 -62 67 -73 l23 -7 -21 41 c-48 94 -43 98 30 22 41 -43
69 -80 66 -88 -4 -9 12 -24 42 -41 48 -28 137 -110 129 -119 -9 -8 -167 28
-261 59 -145 49 -214 81 -483 230 l-62 34 87 57 c47 31 90 57 95 57 5 0 15 -6
23 -14z m183 -702 c42 -35 139 -183 162 -247 10 -28 13 -44 6 -33 -6 10 -34
53 -60 94 -27 41 -73 106 -103 144 -57 70 -58 87 -5 42z m371 -556 c42 -74 68
-147 75 -210 l5 -53 -28 80 c-16 44 -45 115 -65 158 -41 88 -33 103 13 25z
m-5845 -3857 l40 -38 140 -12 c274 -23 248 -16 318 -79 124 -112 531 -456 814
-689 158 -130 313 -257 343 -283 30 -25 105 -87 165 -136 61 -49 147 -120 193
-158 46 -37 121 -98 166 -134 152 -123 450 -365 636 -517 102 -83 232 -187
289 -230 58 -43 100 -80 94 -82 -19 -7 -248 26 -413 58 -749 147 -1336 389
-1935 797 -486 331 -918 761 -1204 1196 -69 106 -79 126 -63 126 7 0 257 151
327 198 17 11 34 21 40 21 5 1 27 -16 50 -38z"/>
</g>
</svg>
